<svg width="34" height="34" viewBox="0 0 34 34" fill="none" xmlns="http://www.w3.org/2000/svg">
<g opacity="0.85" clip-path="url(#clip0_187_2905)">
<rect width="34" height="34" rx="8" fill="#141414"/>
<path d="M12.9361 10.2642C13.582 10.2642 14.1788 10.3101 14.7263 10.448C15.2738 10.54 15.7229 10.7296 16.1228 10.9594C16.5227 11.1892 16.818 11.5167 17.021 11.9362C17.2178 12.3556 17.3224 12.867 17.3224 13.4243C17.3224 14.0736 17.1748 14.6309 16.8241 15.0503C16.5227 15.4698 16.0305 15.8433 15.4276 16.119C16.2766 16.3489 16.9225 16.7683 17.3163 17.3256C17.71 17.883 17.9622 18.5782 17.9622 19.3711C17.9622 20.0204 17.8146 20.5777 17.5623 21.0431C17.3163 21.5085 16.9164 21.928 16.4673 22.2038C16.0182 22.4853 15.4707 22.7151 14.8739 22.853C14.2772 22.9909 13.6805 23.0829 13.0837 23.0829L6.41504 23.0943V10.2642H12.9361ZM12.5362 15.4698C13.0837 15.4698 13.5328 15.3319 13.8773 15.0963C14.2218 14.8607 14.3756 14.447 14.3756 13.9357C14.3756 13.6541 14.3264 13.3783 14.228 13.1945C14.1296 13.0106 13.9819 12.867 13.7789 12.7291C13.582 12.6371 13.379 12.5452 13.1329 12.4992C12.8869 12.4533 12.6346 12.4533 12.3393 12.4533H9.45409V15.4755C9.45409 15.4698 12.5362 15.4698 12.5362 15.4698ZM12.6839 20.9569C12.9853 20.9569 13.2806 20.911 13.5328 20.865C13.7789 20.819 14.0311 20.7271 14.228 20.5835C14.4249 20.4398 14.5786 20.3019 14.7263 20.0721C14.8247 19.8423 14.9232 19.5607 14.9232 19.2332C14.9232 18.584 14.7263 18.1186 14.3264 17.7911C13.9265 17.5095 13.379 17.3716 12.7331 17.3716H9.45409V20.9512H12.6839V20.9569Z" fill="white"/>
<path d="M22.2817 21.2469C22.6451 21.618 23.1875 21.8007 23.9089 21.8007C24.4066 21.8007 24.8595 21.6637 25.2229 21.4296C25.5864 21.1499 25.8101 20.8758 25.8995 20.5961H28.1139C27.7504 21.7036 27.208 22.4915 26.4867 22.9996C25.7653 23.462 24.9042 23.736 23.8642 23.736C23.1428 23.736 22.5054 23.599 21.9182 23.365C21.3311 23.1366 20.8782 22.8112 20.47 22.3488C20.0618 21.932 19.7486 21.4239 19.5641 20.8245C19.3404 20.225 19.2454 19.5799 19.2454 18.8377C19.2454 18.1469 19.3348 17.4961 19.5641 16.8967C19.7934 16.2972 20.1065 15.7891 20.5147 15.3267C20.9229 14.91 21.4206 14.5389 21.963 14.3105C22.5501 14.0822 23.1372 13.9394 23.8642 13.9394C24.6358 13.9394 25.3124 14.0764 25.8995 14.4019C26.4867 14.7273 26.9396 15.0926 27.3031 15.6464C27.6665 16.1545 27.9349 16.754 28.1195 17.3991C28.2089 18.0442 28.2537 18.695 28.2089 19.4315H21.6498C21.6498 20.1851 21.9182 20.8758 22.2817 21.2469ZM25.1335 16.3943C24.8147 16.0689 24.3171 15.8862 23.7299 15.8862C23.3218 15.8862 23.0086 15.9775 22.7346 16.1146C22.4606 16.2516 22.2817 16.44 22.1027 16.6226C21.9238 16.8053 21.8288 17.0394 21.784 17.2678C21.7393 17.4961 21.6946 17.6845 21.6946 17.8672H25.7653C25.6759 17.1821 25.4466 16.7197 25.1335 16.3943ZM21.1521 11.5474H26.2183V12.7919H21.1521V11.5474Z" fill="white"/>
</g>
<defs>
<clipPath id="clip0_187_2905">
<rect width="34" height="34" fill="white"/>
</clipPath>
</defs>
</svg>
