<svg width="116" height="48" viewBox="0 0 116 48" fill="none" xmlns="http://www.w3.org/2000/svg">
<path d="M73.5421 19.8419L74.1686 18.1398L74.7951 19.8419H73.5421ZM74.6023 17.1185H73.6385L71.9035 21.6413H72.8674L73.2529 20.62H75.0361L75.4216 21.6413H76.3855L74.6023 17.1185ZM70.6023 21.6413V17.8966H71.9517V17.1185H68.3855V17.8966H69.7349V21.6413H70.6023ZM64.6746 18.1884C64.9156 17.9453 65.2048 17.7994 65.5903 17.7994C65.9758 17.7994 66.265 17.9453 66.506 18.1884C66.7469 18.4316 66.8433 18.8206 66.8433 19.3556C66.8433 19.8906 66.7469 20.2796 66.506 20.5228C66.265 20.7659 65.9758 20.9118 65.6385 20.9118C65.3011 20.9118 64.9638 20.7659 64.7228 20.5228C64.4819 20.2796 64.3855 19.8906 64.3855 19.3556C64.2891 18.8206 64.4337 18.4316 64.6746 18.1884ZM63.9517 21.1064C64.3373 21.4954 64.8674 21.7386 65.5421 21.7386C66.2168 21.7386 66.7469 21.5441 67.1325 21.1064C67.518 20.7173 67.7108 20.1337 67.7108 19.4042C67.7108 18.6748 67.518 18.0912 67.1325 17.7021C66.7469 17.2644 66.2168 17.0699 65.5421 17.0699C65.1566 17.0699 64.8674 17.1185 64.5782 17.2644C64.3855 17.3617 64.1927 17.5076 63.9999 17.6535C63.8072 17.848 63.6626 18.0425 63.5662 18.2857C63.4216 18.5775 63.3734 18.9665 63.3734 19.4529C63.3734 20.0851 63.5662 20.6687 63.9517 21.1064ZM59.7108 19.6474H60.6264C60.9638 19.6474 61.2529 19.696 61.3975 19.7933C61.5421 19.8906 61.6385 20.0365 61.6385 20.231C61.6385 20.3769 61.5903 20.4741 61.4939 20.5714C61.3975 20.6687 61.3011 20.7173 61.2048 20.7659C61.1084 20.8146 60.9156 20.8146 60.6264 20.8146H59.759L59.7108 19.6474ZM58.8433 21.6413H60.9638C61.3493 21.6413 61.6385 21.5927 61.8313 21.5441C62.024 21.4954 62.2168 21.3009 62.3614 21.1064C62.506 20.9118 62.6023 20.62 62.6023 20.3282C62.6023 20.0365 62.506 19.7933 62.3614 19.5501C62.2168 19.307 62.024 19.1611 61.7831 19.1124C61.5421 19.0152 61.3011 18.9665 60.9638 18.9665H59.759V17.8966H62.2168V17.1185H58.8433V21.6413ZM55.1807 19.8419L55.8072 18.1398L56.4337 19.8419H55.1807ZM56.2891 17.1185H55.3252L53.5903 21.6413H54.5541L54.9397 20.62H56.7228L57.1084 21.6413H58.0722L56.2891 17.1185ZM51.518 17.848C51.8554 17.848 52.0481 17.848 52.1927 17.8966C52.3373 17.9453 52.4819 17.9939 52.5782 18.0912C52.6746 18.1884 52.7228 18.3343 52.7228 18.4802C52.7228 18.6261 52.6746 18.7234 52.6264 18.8206C52.5782 18.9179 52.4819 19.0152 52.3373 19.0638C52.1927 19.1124 51.9999 19.1124 51.6144 19.1124H51.1325V17.848H51.518ZM51.0843 21.6413V19.9392H51.6626C52.0963 19.9392 52.3855 19.9392 52.5782 19.8906C52.7228 19.8419 52.9156 19.7933 53.0602 19.696C53.2047 19.5988 53.3493 19.4529 53.4457 19.2583C53.5421 19.0638 53.5903 18.8206 53.5903 18.5775C53.5903 18.2371 53.4939 17.9453 53.3493 17.7021C53.1566 17.4589 52.9638 17.313 52.7228 17.2644C52.5782 17.2158 52.1927 17.2158 51.6626 17.2158H50.2168V21.7386H51.0843V21.6413Z" fill="#141414"/>
<path d="M108.434 10.7477H107.759C107.374 10.7477 107.133 10.7477 107.036 10.6991C106.892 10.6991 106.795 10.6018 106.747 10.5046C106.651 10.4073 106.651 10.2614 106.651 10.1155C106.651 9.9696 106.699 9.82371 106.795 9.72644C106.892 9.62918 106.988 9.58055 107.084 9.58055C107.181 9.58055 107.422 9.58055 107.807 9.58055H108.53V10.7477H108.434ZM109.35 13.3739V8.85106H107.422C106.988 8.85106 106.651 8.89969 106.41 8.94833C106.169 8.99696 106.024 9.14285 105.88 9.38602C105.735 9.58054 105.687 9.82371 105.687 10.1155C105.687 10.4559 105.783 10.6991 105.976 10.9422C106.169 11.1854 106.458 11.3313 106.892 11.3799C106.699 11.4772 106.554 11.6231 106.41 11.769C106.265 11.9149 106.121 12.1581 105.88 12.4985L105.35 13.3739H106.41L107.084 12.4012C107.374 11.9635 107.566 11.7204 107.663 11.6231C107.759 11.5258 108 11.4772 108.289 11.4772H108.482V13.3739H109.35ZM102.121 11.5745L102.747 9.87234L103.374 11.5745H102.121ZM103.229 8.85106H102.265L100.53 13.3739H101.494L101.88 12.3526H103.663L104.048 13.3739H105.012L103.229 8.85106ZM97.1086 13.3739V11.3799H98.8917V13.3739H99.8074V8.85106H98.8917V10.6505H97.1086V8.85106H96.1929V13.3739H97.1086ZM92.3375 13.3739V11.3799H94.1206V13.3739H95.0363V8.85106H94.1206V10.6505H92.3375V8.85106H91.4218V13.3739H92.3375ZM87.3736 9.92097C87.6146 9.67781 87.9037 9.53191 88.2893 9.53191C88.6748 9.53191 88.964 9.67781 89.2049 9.92097C89.4459 10.1641 89.5423 10.5532 89.5423 11.0881C89.5423 11.6231 89.4459 12.0122 89.2049 12.2553C88.964 12.4985 88.6748 12.6444 88.3375 12.6444C88.0001 12.6444 87.6628 12.4985 87.4218 12.2553C87.1808 12.0122 87.0845 11.6231 87.0845 11.0881C87.0363 10.5532 87.1809 10.1641 87.3736 9.92097ZM86.6989 12.8389C87.0845 13.228 87.6146 13.4711 88.2893 13.4711C88.964 13.4711 89.4941 13.2766 89.8796 12.8389C90.2652 12.4498 90.458 11.8663 90.458 11.1368C90.458 10.4073 90.2652 9.82371 89.8796 9.43465C89.4941 8.99696 88.964 8.80243 88.2893 8.80243C87.9037 8.80243 87.6146 8.85106 87.3254 8.99696C87.1327 9.09422 86.9399 9.24012 86.7471 9.38602C86.5543 9.58054 86.4098 9.77507 86.3134 10.0182C86.1688 10.31 86.1206 10.6991 86.1206 11.1854C86.1206 11.8176 86.3134 12.4012 86.6989 12.8389ZM81.5423 13.3739H82.458L84.2893 10.4073V13.3739H85.1567V8.85106H84.2411L82.4098 11.8663V8.85106H81.5423V13.3739ZM76.723 13.3739H79.9037V14.3465H80.6748V12.5957H80.2893V8.85106H79.3736V12.5957H77.6387V8.85106H76.723V13.3739ZM72.6748 13.3739H73.5905V11.3799C73.7351 11.3799 73.8796 11.4286 73.9278 11.4772C74.0242 11.5258 74.1206 11.6717 74.217 11.9149C74.2652 12.0608 74.3134 12.1094 74.3134 12.1094C74.3616 12.1581 74.3616 12.2067 74.3616 12.2067L74.8917 13.3739H75.9519L75.3254 12.1094C75.1809 11.769 75.0363 11.5258 74.8917 11.3799C74.7471 11.1854 74.6025 11.0881 74.4098 11.0395C74.5543 10.9422 74.6989 10.845 74.7471 10.7477C74.7953 10.6505 74.8917 10.5046 74.9399 10.3587C75.0363 10.0669 75.1327 9.87234 75.1808 9.77507C75.229 9.67781 75.3254 9.62918 75.3736 9.58055C75.47 9.53191 75.6146 9.53191 75.7592 9.53191H75.9037V8.85106C75.8555 8.85106 75.8074 8.85106 75.7592 8.85106C75.3254 8.85106 75.0363 8.89969 74.8435 9.04559C74.6507 9.14285 74.458 9.48328 74.2652 9.9696C74.1206 10.3587 74.0242 10.6018 73.9278 10.6505C73.8796 10.7477 73.7351 10.7964 73.4941 10.7964V8.85106H72.5784V13.3739H72.6748ZM71.6146 13.3739V12.5957H69.1086V11.3799H71.3736V10.6018H69.1086V9.58055H71.5182V8.80243H68.1929V13.3252H71.6146V13.3739ZM65.1086 9.58055C65.4459 9.58055 65.6387 9.58054 65.7833 9.62918C65.9278 9.67781 66.0724 9.72644 66.1688 9.82371C66.2652 9.92097 66.3134 10.0669 66.3134 10.2128C66.3134 10.3587 66.2652 10.4559 66.217 10.5532C66.1688 10.6505 66.0724 10.7477 65.9278 10.7964C65.7833 10.845 65.5905 10.845 65.2049 10.845H64.723V9.58055H65.1086ZM64.6748 13.3739V11.6717H65.2531C65.6869 11.6717 65.976 11.6717 66.1688 11.6231C66.3134 11.5745 66.5062 11.5258 66.6507 11.4286C66.7953 11.3313 66.9399 11.1854 67.0363 10.9909C67.1327 10.7964 67.1808 10.5532 67.1808 10.31C67.1808 9.9696 67.0845 9.67781 66.9399 9.43465C66.7471 9.19149 66.5543 9.04559 66.3134 8.99696C66.1688 8.94833 65.7833 8.94833 65.2531 8.94833H63.8074V13.4711H64.6748V13.3739ZM60.6748 9.58055C61.0122 9.58055 61.2049 9.58054 61.3495 9.62918C61.4941 9.67781 61.6387 9.72644 61.7351 9.82371C61.8315 9.92097 61.8796 10.0669 61.8796 10.2128C61.8796 10.3587 61.8314 10.4559 61.7833 10.5532C61.7351 10.6505 61.6387 10.7477 61.4941 10.7964C61.3495 10.845 61.1568 10.845 60.7712 10.845H60.2893V9.58055H60.6748ZM60.2411 13.3739V11.6717H60.8194C61.2049 11.6717 61.5423 11.6717 61.7351 11.6231C61.8796 11.5745 62.0724 11.5258 62.217 11.4286C62.3616 11.3313 62.5061 11.1854 62.6025 10.9909C62.6989 10.7964 62.7471 10.5532 62.7471 10.31C62.7471 9.9696 62.6507 9.67781 62.5061 9.43465C62.3134 9.19149 62.1206 9.04559 61.8796 8.99696C61.7351 8.94833 61.3495 8.94833 60.8194 8.94833H59.3736V13.4711H60.2411V13.3739ZM55.3254 9.92097C55.5664 9.67781 55.8555 9.53191 56.2411 9.53191C56.6266 9.53191 56.9158 9.67781 57.1567 9.92097C57.3977 10.1641 57.4941 10.5532 57.4941 11.0881C57.4941 11.6231 57.3977 12.0122 57.1567 12.2553C56.9158 12.4985 56.6266 12.6444 56.2893 12.6444C55.9037 12.6444 55.6146 12.4985 55.3736 12.2553C55.1327 12.0122 55.0363 11.6231 55.0363 11.0881C54.9881 10.5532 55.0845 10.1641 55.3254 9.92097ZM54.6507 12.8389C55.0363 13.228 55.5664 13.4711 56.2411 13.4711C56.9158 13.4711 57.4459 13.2766 57.8314 12.8389C58.217 12.4012 58.4098 11.8663 58.4098 11.1368C58.4098 10.4073 58.217 9.82371 57.8314 9.43465C57.4459 8.99696 56.9158 8.80243 56.2411 8.80243C55.8555 8.80243 55.5664 8.85106 55.2772 8.99696C55.0845 9.09422 54.8917 9.24012 54.6989 9.38602C54.5061 9.58054 54.3616 9.77507 54.2652 10.0182C54.1206 10.31 54.0724 10.6991 54.0724 11.1854C54.0242 11.8176 54.2652 12.4012 54.6507 12.8389ZM50.1688 13.3739H51.0845V11.3799C51.229 11.3799 51.3736 11.4286 51.4218 11.4772C51.5182 11.5258 51.6146 11.6717 51.711 11.9149C51.7592 12.0608 51.8074 12.1094 51.8074 12.1094C51.8555 12.1581 51.8555 12.2067 51.8555 12.2067L52.3857 13.3739H53.4459L52.8194 12.1094C52.6748 11.769 52.5302 11.5258 52.3857 11.3799C52.2411 11.234 52.0965 11.0881 51.9037 11.0395C52.0483 10.9422 52.1929 10.845 52.2411 10.7477C52.2893 10.6505 52.3857 10.5046 52.4339 10.3587C52.5302 10.0669 52.6266 9.87234 52.6748 9.77507C52.723 9.67781 52.8194 9.62918 52.8676 9.58055C52.964 9.53191 53.1086 9.53191 53.2531 9.53191H53.3977V8.85106C53.3495 8.85106 53.3013 8.85106 53.2531 8.85106C52.8194 8.85106 52.5302 8.89969 52.3375 9.04559C52.1447 9.14285 51.9519 9.48328 51.7592 9.9696C51.6146 10.3587 51.5182 10.6018 51.4218 10.6505C51.3736 10.7477 51.229 10.7964 51.0363 10.7964V8.85106H50.1206V13.3739H50.1688Z" fill="#141414"/>
<path d="M78.1685 4.23101H77.301V5.10639H78.1685V4.23101ZM72.6745 5.10639V1.5076L73.542 5.05776H74.4094L75.2769 1.5076V5.05776H76.0962V0.583593H74.7468L73.9275 3.64742L73.1082 0.583593H71.7588V5.10639H72.6745ZM69.06 1.21581C69.301 1.21581 69.4456 1.26444 69.5901 1.36171C69.6865 1.45897 69.7829 1.60487 69.7829 1.7994C69.7829 1.99393 69.6865 2.18846 69.5419 2.28572C69.3974 2.43162 69.2046 2.48025 68.9154 2.48025H68.8191V3.1611H69.0118C69.301 3.1611 69.542 3.20973 69.6865 3.307C69.8311 3.40426 69.9275 3.55016 69.9275 3.74469C69.9275 3.89058 69.8793 4.03648 69.7347 4.18238C69.5901 4.32827 69.3974 4.37691 69.1082 4.37691C68.9154 4.37691 68.7227 4.32827 68.5781 4.27964C68.4335 4.18238 68.3371 4.03648 68.2407 3.74469L67.4215 4.03648C67.566 4.47417 67.7588 4.76596 68.048 4.91186C68.3371 5.05776 68.6745 5.15502 69.1564 5.15502C69.7347 5.15502 70.1685 5.00912 70.4576 4.76596C70.7468 4.5228 70.8913 4.18238 70.8913 3.79332C70.8913 3.50153 70.795 3.307 70.6504 3.11247C70.5058 2.91794 70.2648 2.77204 69.9757 2.67478C70.2166 2.52888 70.4094 2.38298 70.5058 2.23709C70.6504 2.04256 70.6986 1.84803 70.6986 1.6535C70.6986 1.36171 70.554 1.06991 70.313 0.826754C70.0239 0.583593 69.6383 0.486328 69.1082 0.486328C68.2407 0.486328 67.6624 0.875386 67.4697 1.60487L68.3371 1.7994C68.4335 1.41034 68.6745 1.21581 69.06 1.21581ZM62.9395 5.10639H63.8552L65.6865 2.13982V5.10639H66.554V0.583593H65.6383L63.807 3.59879V0.583593H62.9395V5.10639ZM60.7709 5.10639V1.31308H62.1203V0.583593H58.554V1.36171H59.9034V5.10639H60.7709ZM55.9034 3.79332C55.807 4.03648 55.7106 4.23101 55.6624 4.27964C55.566 4.37691 55.4215 4.37691 55.2287 4.37691C55.1323 4.37691 54.9877 4.37691 54.8913 4.37691V5.05776C55.0359 5.10639 55.2287 5.10639 55.5178 5.10639C55.807 5.10639 55.9998 5.00912 56.1925 4.8146C56.3853 4.62007 56.5299 4.32827 56.6745 3.98785L58.1685 0.53496H57.2046L56.2889 2.91794L55.2287 0.583593H54.2166L55.9034 3.79332ZM51.3251 3.307L51.9516 1.60487L52.5781 3.307H51.3251ZM52.3853 0.583593H51.4215L49.6865 5.10639H50.6504L51.0359 4.08511H52.8191L53.2046 5.10639H54.1685L52.3853 0.583593Z" fill="#141414"/>
<path opacity="0.5" d="M112.193 44.9848L112.723 43.4772L113.301 44.9848H112.193ZM113.205 42.5046H112.337L110.747 46.6383H111.614L111.952 45.7143H113.59L113.927 46.6383H114.843L113.205 42.5046ZM107.47 46.6383H108.289V44.8389C108.434 44.8389 108.53 44.8875 108.578 44.9362C108.626 44.9848 108.723 45.1307 108.819 45.3252C108.867 45.4225 108.915 45.5198 108.915 45.5198C108.964 45.5684 108.964 45.5684 108.964 45.617L109.446 46.6869H110.409L109.831 45.5684C109.687 45.2766 109.542 45.0334 109.446 44.8875C109.349 44.7416 109.156 44.6444 109.012 44.5471C109.156 44.4498 109.253 44.3526 109.301 44.2553C109.349 44.158 109.397 44.0608 109.446 43.9149C109.542 43.6717 109.59 43.4772 109.638 43.3799C109.687 43.2827 109.735 43.234 109.831 43.1854C109.927 43.1368 110.024 43.1368 110.217 43.1368H110.313V42.5046C110.265 42.5046 110.217 42.5046 110.217 42.5046C109.831 42.5046 109.542 42.5532 109.397 42.6504C109.205 42.7477 109.06 43.0395 108.867 43.4772C108.723 43.8176 108.626 44.0608 108.578 44.1094C108.53 44.2067 108.385 44.2553 108.193 44.2553V42.5046H107.47V46.6383ZM103.132 46.6383H103.952L105.59 43.9635V46.6383H106.361V42.5046H105.542L103.903 45.228V42.5046H103.132V46.6383ZM101.156 46.6383V43.234H102.361V42.5532H99.1323V43.234H100.337V46.6383H101.156ZM95.6142 46.6383H96.4335V44.8389C96.5781 44.8389 96.6745 44.8875 96.7227 44.9362C96.7709 44.9848 96.8673 45.1307 96.9636 45.3252C97.0118 45.4225 97.06 45.5198 97.06 45.5198C97.1082 45.5684 97.1082 45.5684 97.1082 45.617L97.5901 46.6869H98.554L97.9757 45.5684C97.8311 45.2766 97.6865 45.0334 97.5901 44.8875C97.4938 44.7416 97.301 44.6444 97.1564 44.5471C97.301 44.4498 97.3974 44.3526 97.4456 44.2553C97.4938 44.158 97.542 44.0608 97.5901 43.9149C97.6865 43.6717 97.7347 43.4772 97.7829 43.3799C97.8311 43.2827 97.8793 43.234 97.9757 43.1854C98.0721 43.1368 98.1685 43.1368 98.3612 43.1368H98.4576V42.5046C98.4094 42.5046 98.3612 42.5046 98.3612 42.5046C97.9757 42.5046 97.6865 42.5532 97.542 42.6504C97.3492 42.7477 97.2046 43.0395 97.0118 43.4772C96.8673 43.8176 96.7709 44.0608 96.7227 44.1094C96.6745 44.2067 96.5299 44.2553 96.3371 44.2553V42.5046H95.5179V46.6383H95.6142ZM92.2889 44.9848L92.8191 43.4772L93.3974 44.9848H92.2889ZM93.301 42.5046H92.4335L90.8432 46.6383H91.7106L92.048 45.7143H93.6865L94.0239 46.6383H94.9395L93.301 42.5046ZM88.9636 43.1854C89.2528 43.1854 89.4456 43.1854 89.542 43.234C89.6865 43.234 89.7829 43.3313 89.8793 43.4286C89.9757 43.5258 90.0239 43.6717 90.0239 43.8176C90.0239 43.9635 89.9757 44.0608 89.9275 44.1581C89.8793 44.2553 89.7829 44.3039 89.6865 44.3526C89.5901 44.4012 89.3492 44.4012 89.06 44.4012H88.6263V43.234L88.9636 43.1854ZM88.5781 46.6383V45.0821H89.1082C89.4938 45.0821 89.7829 45.0821 89.9757 45.0334C90.1203 44.9848 90.2648 44.9362 90.4094 44.8389C90.554 44.7416 90.6504 44.5957 90.7468 44.4498C90.8432 44.2553 90.8914 44.0608 90.8914 43.8176C90.8914 43.4772 90.795 43.234 90.6504 43.0395C90.5058 42.845 90.313 42.6991 90.0721 42.6504C89.9275 42.6018 89.5901 42.6018 89.1082 42.6018H87.7106V46.7356H88.5781V46.6383ZM83.4215 46.6383H84.2407V43.234H85.8311V46.6383H86.6504V42.5046H83.4215V46.6383ZM77.301 46.6383H78.1203L79.7588 43.9635V46.6383H80.5299V42.5046H79.7106L78.0721 45.228V42.5046H77.301V46.6383ZM73.5901 44.2553H72.9636C72.6263 44.2553 72.3853 44.2553 72.2889 44.2067C72.1926 44.2067 72.0962 44.1094 71.9998 44.0608C71.9516 43.9635 71.9034 43.8663 71.9034 43.7204C71.9034 43.5745 71.9516 43.4772 71.9998 43.3799C72.0962 43.2827 72.1444 43.234 72.2889 43.234C72.3853 43.234 72.6263 43.234 72.9154 43.234H73.542L73.5901 44.2553ZM74.4094 46.6383V42.5046H72.6745C72.2889 42.5046 71.9516 42.5532 71.7588 42.6018C71.566 42.6504 71.3733 42.7963 71.2769 42.9909C71.1323 43.1854 71.0841 43.4286 71.0841 43.6717C71.0841 43.9635 71.1805 44.2067 71.3251 44.4012C71.4697 44.5957 71.7588 44.7416 72.1444 44.7903C71.9516 44.8875 71.807 44.9848 71.7106 45.1307C71.6142 45.2766 71.4215 45.4711 71.2287 45.8115L70.7468 46.5897H71.7106L72.2889 45.7143C72.5299 45.3252 72.7227 45.0821 72.8191 45.0334C72.9154 44.9362 73.1082 44.9362 73.3492 44.9362H73.4938V46.6383H74.4094ZM66.8432 46.6383H67.6624L69.301 43.9635V46.6383H70.0721V42.5046H69.2528L67.6142 45.228V42.5046H66.8432V46.6383ZM64.048 43.1854C64.3371 43.1854 64.5299 43.1854 64.6263 43.234C64.7709 43.234 64.8673 43.3313 64.9636 43.4286C65.06 43.5258 65.1082 43.6717 65.1082 43.8176C65.1082 43.9635 65.06 44.0608 65.0118 44.1581C64.9636 44.2553 64.8673 44.3039 64.7709 44.3526C64.6745 44.4012 64.4335 44.4012 64.1444 44.4012H63.7106V43.234L64.048 43.1854ZM63.6624 46.6383V45.0821H64.1926C64.5781 45.0821 64.8673 45.0821 65.06 45.0334C65.2046 44.9848 65.3492 44.9362 65.4938 44.8389C65.6383 44.7416 65.7347 44.5957 65.8311 44.4498C65.9275 44.2553 65.9757 44.0608 65.9757 43.8176C65.9757 43.4772 65.8793 43.234 65.7347 43.0395C65.5901 42.845 65.3974 42.6991 65.1564 42.6504C65.0118 42.6018 64.6745 42.6018 64.1926 42.6018H62.8913V46.7356H63.6624V46.6383ZM59.1805 43.4772C59.3733 43.234 59.6624 43.1368 59.9998 43.1368C60.3371 43.1368 60.6263 43.234 60.8191 43.4772C61.0118 43.7204 61.1082 44.0608 61.1082 44.5471C61.1082 45.0334 61.0118 45.3739 60.7709 45.617C60.5781 45.8602 60.2889 45.9574 59.9516 45.9574C59.6142 45.9574 59.3733 45.8602 59.1323 45.617C58.9395 45.3739 58.795 45.0334 58.795 44.5471C58.8432 44.1094 58.9395 43.7204 59.1805 43.4772ZM58.554 46.1033C58.8913 46.4924 59.3733 46.6869 59.9998 46.6869C60.5781 46.6869 61.06 46.4924 61.4456 46.1033C61.7829 45.7143 61.9757 45.228 61.9757 44.5471C61.9757 43.8663 61.7829 43.3313 61.4456 42.9909C61.1082 42.6018 60.6263 42.4073 59.9998 42.4073C59.6624 42.4073 59.3733 42.4559 59.1323 42.5532C58.9395 42.6505 58.7468 42.7477 58.6022 42.9422C58.4576 43.0881 58.313 43.2827 58.2167 43.5258C58.0721 43.8176 58.0239 44.158 58.0239 44.5957C57.9757 45.228 58.1685 45.7629 58.554 46.1033ZM57.2528 46.6383V45.9574H54.9877V44.8389H57.0118V44.1581H54.9877V43.234H57.2046V42.5532H54.1685V46.6869L57.2528 46.6383ZM52.1926 46.6383V43.234H53.3974V42.5532H50.1685V43.234H51.3733V46.6383H52.1926Z" fill="#141414"/>
<path d="M73.0118 33.0699L74.2648 29.5684L75.566 33.0699H73.0118ZM75.2769 27.3313H73.2528L69.5901 36.7659H71.6142L72.3853 34.6261H76.1444L76.9636 36.7659H79.0359L75.2769 27.3313ZM64.048 32.6808C64.9154 32.6808 65.4456 32.7295 65.7347 32.8267C65.9757 32.924 66.1685 33.0699 66.313 33.2644C66.4576 33.459 66.5058 33.7021 66.5058 33.9939C66.5058 34.3343 66.4094 34.5775 66.2648 34.8207C66.0721 35.0152 65.8793 35.1611 65.5901 35.2097C65.3974 35.2584 64.9636 35.2584 64.2889 35.2584H62.554V32.7295H64.048V32.6808ZM63.6142 28.8875C64.4817 28.8875 65.06 28.8875 65.2528 28.9362C65.5901 28.9848 65.7829 29.0821 65.9757 29.2766C66.1203 29.4711 66.2166 29.7143 66.2166 30.0061C66.2166 30.2979 66.1203 30.541 65.9275 30.7356C65.7347 30.9301 65.4938 31.0273 65.1564 31.076C64.9636 31.076 64.5299 31.1246 63.7588 31.1246H62.5058V28.9362L63.6142 28.8875ZM60.6263 36.7659H63.807C65.0118 36.7659 65.7829 36.7173 66.0721 36.7173C66.554 36.6687 66.9877 36.5228 67.3251 36.2796C67.6624 36.0365 67.9516 35.696 68.1444 35.307C68.3371 34.9179 68.4335 34.4802 68.4335 34.0425C68.4335 33.5076 68.2889 33.0213 67.9516 32.6322C67.6624 32.2432 67.2287 31.9514 66.6504 31.7568C67.0359 31.5623 67.3733 31.2705 67.6142 30.9301C67.8552 30.541 67.9516 30.152 67.9516 29.7143C67.9516 29.3252 67.8552 28.9362 67.6624 28.5957C67.4697 28.2553 67.2287 28.0121 66.9395 27.8176C66.6504 27.6231 66.313 27.4772 65.9757 27.4286C65.5901 27.3799 65.06 27.3313 64.3371 27.3313H60.5781L60.6263 36.7659ZM53.06 33.0699L54.313 29.5684L55.6142 33.0699H53.06ZM55.3733 27.3313H53.3492L49.6865 36.7659H51.7106L52.4817 34.6261H56.2407L57.06 36.7659H59.1323L55.3733 27.3313Z" fill="#0D42AA"/>
<path d="M0.481934 32.6322V35.9879C3.71085 37.1064 8.24097 40.7052 11.5181 40.5106C13.253 38.5167 11.5181 36.8632 12.1928 33.5076C12.5783 31.5623 12.8193 26.845 13.5422 25.8237C14.6506 25.7751 13.9759 25.6292 14.2169 26.2614C15.2771 26.6505 14.1687 29.0821 14.9398 30.5897C16.241 28.7416 15.9518 24.8024 18.3614 24.8511C18.7952 27.0395 17.494 27.9149 17.494 30.2006C18.2651 28.6444 19.1807 25.0942 21.0121 24.8997C21.5422 26.7477 20.2892 28.4985 19.7108 30.3465L20.0482 30.3951C20.8193 29.0821 21.494 27.0395 23.0361 27.0882C23.8554 29.6657 20.3855 32.0486 20.0482 34.5289C22.0241 34.1398 22.747 32.6322 24.6747 33.848C24.1446 35.1611 21.2048 36.9119 20.0482 38.0304C18.3614 39.538 15.5663 39.9271 16.0964 42.845C18.1687 44.8875 22.6506 45.1793 25.0602 46.6869H25.9277C27.7108 42.7964 29.0602 36.6201 31.3735 37.0091C32.9157 37.2523 33.5422 40.1216 34.6988 41.3374C36.241 43.0395 36.8675 43.5258 38.4096 45.5684C38.7952 45.228 38.8434 46.0061 38.747 44.5471C38.3615 42.9909 37.7831 42.7477 37.7349 41.1915C40.3374 41.0942 42.506 44.4499 45.2048 44.5471C44 43.234 41.0121 42.3587 40.8675 40.5593C42.6024 40.6079 44.7229 41.9696 46.6506 42.3587V41.7265C45.2048 41.2401 41.8795 40.2188 41.5904 38.7599C43.3253 38.2249 44.8193 39.2462 46.6506 39.5866V38.9544C45.7349 38.614 44.8675 38.3222 43.9036 38.0304C42.6506 37.6413 41.9759 37.6413 41.3976 36.6687C42.8434 35.0152 44.5301 36.4742 46.3133 35.5988C45.1566 35.0152 41.3976 35.0152 39.4217 34.5289C36.7711 33.848 34.747 34.5289 32.5783 33.459C31.7108 29.3252 36 26.7477 36.8675 23.2462C32.6747 21.3982 29.0602 20.0851 24.8675 17.9939C19.2771 15.1733 24.1446 14.541 26.747 12.0122L30.7952 8.51064C29.2048 7.82979 28.3855 9.53192 26.7952 9.82371C26.3133 7.44074 28.9639 5.10639 29.4458 2.43162L29.1084 2.18846C28.241 3.64742 27.2289 6.07903 25.6386 6.41946C25.6386 4.47417 26.988 2.48025 27.4217 0.53496H26.7952C26.2169 2.13982 25.3976 5.05776 23.759 5.59271C23.3253 3.89058 24.241 2.13982 24.5783 0.486328H23.9518C22.6506 4.18238 22.8434 5.49545 21.253 5.59271C20.2892 3.59879 21.4458 2.23709 20.4819 0.778121C19.7108 2.96657 19.3253 13.1307 18.3133 14.3465C15.4699 15.6596 12.5783 12.5958 10.1687 11.6717C8.43374 14.3465 3.32531 28.9362 0.481934 32.6322Z" fill="#0D42AA"/>
<path d="M26.3135 5.05776L26.5544 4.91186C27.5665 3.45289 28.0966 1.84803 29.687 1.41034C30.699 3.64742 27.1328 6.66262 27.0846 9.09423C28.7231 8.31612 29.1569 7.19758 31.181 8.02432C31.2773 9.77508 28.3376 10.6505 27.3255 11.7204C24.7713 14.3951 25.2532 13.3739 22.7954 15.076C22.8436 16.8268 24.0002 16.9727 25.6388 17.7508C26.8918 18.383 28.1448 18.9179 29.3978 19.5502C31.0846 20.4255 35.5183 22.4681 37.205 22.614C38.2653 20.6687 44.8195 7.87843 44.4822 5.68998C43.4701 5.10639 42.5063 5.10639 41.3496 4.6687C40.193 4.27964 39.5665 3.59879 38.5063 3.06384C36.8677 2.18846 33.8316 1.70213 32.5785 0.486328H27.952L26.3135 5.05776Z" fill="#0D42AA"/>
<path d="M14.2169 26.2614L13.6868 26.5532C13.3494 28.0608 13.494 28.8389 13.3494 30.3465C13.253 31.7082 12.8675 32.6322 12.6265 33.9453C12.0482 37.0578 14.0241 39.2462 11.8554 40.8511C9.15663 41.8237 3.22892 37.7386 0.481934 36.6201V46.6869H23.4217C20.4819 44.693 13.253 44.4499 15.9518 40.4134L24.1446 33.9939C21.7831 33.6049 21.7831 35.3556 19.759 34.9666C18.988 32.6809 22.5542 30.4438 22.7952 27.5745C21.3494 28.5957 20.8193 31.8541 18.9398 32C18.7952 29.9088 21.253 27.3313 20.5783 25.5319C19.4699 27.234 19.0362 30.4438 17.1084 31.1246C16.5301 29.2766 18.1205 27.3799 17.9759 25.2888C16.6265 26.6991 16.6265 30.8815 14.7952 31.2705C13.6868 30.0547 14.0241 27.7204 14.2169 26.2614Z" fill="#0D42AA"/>
<path d="M0.481934 31.4164C1.97591 29.7143 9.3494 12.9361 9.44579 10.9422C6.55422 9.0942 4.14458 5.88447 0.481934 5.00909V31.4164Z" fill="#0D42AA"/>
<path d="M46.6023 25.386V0.486328H33.8794C34.8432 1.16718 37.783 2.18846 39.277 2.96657C40.6746 3.69605 44.53 4.96049 45.0601 5.44681C45.6384 8.60791 38.6505 19.307 37.8794 23.003L46.6023 25.386Z" fill="#0D42AA"/>
<path d="M46.6025 34.8693V26.1155L37.5905 23.4407C36.1447 25.4347 32.7712 30.541 32.964 32.9727C33.9278 33.459 44.723 34.7234 46.6025 34.8693Z" fill="#0D42AA"/>
<path d="M0.481934 4.32827C4.48193 5.68998 6.50603 8.46201 9.78314 10.4073C9.78314 10.4073 15.2771 0.486328 15.3253 0.486328H0.481934V4.32827Z" fill="#0D42AA"/>
<path d="M26.6025 46.6869H46.6025V43.0395L42.1206 41.5319C42.7953 42.0182 43.4218 42.4559 44.1447 42.9422C45.4941 43.8176 45.6387 43.6231 45.5905 44.9362C43.8074 45.617 40.2893 42.31 38.4098 41.8237C38.7953 43.769 40.0965 44.4985 39.0363 46.3951C37.6387 46.152 37.6869 45.3252 36.7712 44.158C36.3857 43.6231 35.1809 42.5532 34.6989 42.0668C32.3375 39.8298 33.1086 37.2523 30.4098 37.6899C28.8194 39.6839 27.8556 44.1094 26.6025 46.6869Z" fill="#0D42AA"/>
<path d="M19.9038 0.486328H15.952C14.4098 4.08511 11.8074 6.61399 10.458 10.8936C11.8074 12.4499 16.0002 14.4924 17.9761 13.9088C18.5062 13.0821 19.5664 2.43162 19.9038 0.486328Z" fill="#0D42AA"/>
<path d="M23.2772 0.486328H21.3013L21.4458 5.10639C22.4097 4.13374 22.8916 1.89666 23.2772 0.486328Z" fill="#0D42AA"/>
<path d="M46.6025 38.2735V36.3769L42.1206 36.8146L46.6025 38.2735Z" fill="#0D42AA"/>
<path d="M26.024 0.486328H25.2048L24.1445 4.23101C25.1566 3.35563 25.6385 1.75077 26.024 0.486328Z" fill="#0D42AA"/>
<path d="M46.6024 41.0456V40.2675L42.5542 39.1489C44.1928 40.0243 44.5301 40.5593 46.6024 41.0456Z" fill="#0D42AA"/>
</svg>
