<svg width="22" height="22" viewBox="0 0 22 22" fill="none" xmlns="http://www.w3.org/2000/svg">
<path fill-rule="evenodd" clip-rule="evenodd" d="M10.0748 6.50835C8.74622 5.72395 7.25 6.79065 7.25 8.21316V13.7868C7.25 15.2093 8.74622 16.276 10.0748 15.4916L14.795 12.7048C16.0683 11.953 16.0683 10.047 14.795 9.2952L10.0748 6.50835ZM8.75 8.21316C8.75 8.01468 8.84615 7.87585 8.95947 7.80498C9.06914 7.73641 9.19185 7.72898 9.31218 7.80003L14.0324 10.5869C14.165 10.6652 14.25 10.8148 14.25 11C14.25 11.1852 14.165 11.3348 14.0324 11.4131L9.31218 14.2C9.19186 14.271 9.06914 14.2636 8.95947 14.195C8.84615 14.1242 8.75 13.9853 8.75 13.7868V8.21316Z" fill="#141414"/>
<path fill-rule="evenodd" clip-rule="evenodd" d="M11 0.25C5.06294 0.25 0.25 5.06294 0.25 11C0.25 16.9371 5.06294 21.75 11 21.75C16.9371 21.75 21.75 16.9371 21.75 11C21.75 5.06294 16.9371 0.25 11 0.25ZM1.75 11C1.75 5.89137 5.89137 1.75 11 1.75C16.1086 1.75 20.25 5.89137 20.25 11C20.25 16.1086 16.1086 20.25 11 20.25C5.89137 20.25 1.75 16.1086 1.75 11Z" fill="#141414"/>
</svg>
