<svg width="28" height="28" viewBox="0 0 28 28" fill="none" xmlns="http://www.w3.org/2000/svg">
<path fill-rule="evenodd" clip-rule="evenodd" d="M4.3125 9.84373C2.1729 9.40942 0.5625 7.51777 0.5625 5.25C0.5625 2.66117 2.66117 0.5625 5.25 0.5625C7.51777 0.5625 9.40942 2.1729 9.84373 4.3125H18.1563C18.5906 2.1729 20.4822 0.5625 22.75 0.5625C25.3388 0.5625 27.4375 2.66117 27.4375 5.25C27.4375 7.51777 25.8271 9.40942 23.6875 9.84373V18.1563C25.8271 18.5906 27.4375 20.4822 27.4375 22.75C27.4375 25.3388 25.3388 27.4375 22.75 27.4375C20.4822 27.4375 18.5906 25.8271 18.1563 23.6875H9.84373C9.40942 25.8271 7.51777 27.4375 5.25 27.4375C2.66117 27.4375 0.5625 25.3388 0.5625 22.75C0.5625 20.4822 2.1729 18.5906 4.3125 18.1563L4.3125 9.84373ZM2.4375 5.25C2.4375 3.6967 3.6967 2.4375 5.25 2.4375C6.8033 2.4375 8.0625 3.6967 8.0625 5.25C8.0625 6.8033 6.8033 8.0625 5.25 8.0625C3.6967 8.0625 2.4375 6.8033 2.4375 5.25ZM6.1875 18.1563L6.1875 9.84373C8.02418 9.47091 9.47091 8.02419 9.84373 6.1875H18.1563C18.5291 8.02419 19.9758 9.47091 21.8125 9.84373V18.1563C19.9758 18.5291 18.5291 19.9758 18.1563 21.8125H9.84373C9.47091 19.9758 8.02419 18.5291 6.1875 18.1563ZM5.25 19.9375C3.6967 19.9375 2.4375 21.1967 2.4375 22.75C2.4375 24.3033 3.6967 25.5625 5.25 25.5625C6.8033 25.5625 8.0625 24.3033 8.0625 22.75C8.0625 21.1967 6.8033 19.9375 5.25 19.9375ZM25.5625 5.25C25.5625 6.8033 24.3033 8.0625 22.75 8.0625C21.1967 8.0625 19.9375 6.8033 19.9375 5.25C19.9375 3.6967 21.1967 2.4375 22.75 2.4375C24.3033 2.4375 25.5625 3.6967 25.5625 5.25ZM19.9375 22.75C19.9375 21.1967 21.1967 19.9375 22.75 19.9375C24.3033 19.9375 25.5625 21.1967 25.5625 22.75C25.5625 24.3033 24.3033 25.5625 22.75 25.5625C21.1967 25.5625 19.9375 24.3033 19.9375 22.75Z" fill="white"/>
</svg>
