<svg width="30" height="30" viewBox="0 0 30 30" fill="none" xmlns="http://www.w3.org/2000/svg">
<path fill-rule="evenodd" clip-rule="evenodd" d="M21.5074 2.32024C20.1789 1.79688 18.895 2.15117 17.9863 2.95942C17.0998 3.7478 16.5625 4.96237 16.5625 6.25003V11.25C16.5625 12.4582 17.5419 13.4375 18.75 13.4375H23.75C25.0377 13.4375 26.2522 12.9002 27.0406 12.0138C27.8489 11.105 28.2032 9.82113 27.6798 8.49265C26.5697 5.6749 24.3251 3.43029 21.5074 2.32024ZM18.4375 11.25V6.25003C18.4375 5.46663 18.7686 4.77287 19.2323 4.36047C19.6737 3.96794 20.2217 3.82899 20.8201 4.06475C23.1541 4.98421 25.0158 6.84591 25.9353 9.1799C26.171 9.77835 26.0321 10.3264 25.6396 10.7677C25.2272 11.2314 24.5334 11.5625 23.75 11.5625H18.75C18.5774 11.5625 18.4375 11.4226 18.4375 11.25Z" fill="white"/>
<path fill-rule="evenodd" clip-rule="evenodd" d="M13.7441 3.58746C12.9809 3.09305 12.2427 2.95072 11.4321 3.09206C10.7437 3.21209 10.0069 3.54229 9.2227 3.89374L9.1382 3.9316C8.48589 4.22373 7.85633 4.5712 7.25676 4.97182C5.14976 6.37967 3.50755 8.38071 2.5378 10.7219C1.56805 13.0631 1.31432 15.6392 1.80869 18.1246C2.30307 20.61 3.52334 22.893 5.3152 24.6848C7.10706 26.4767 9.39003 27.697 11.8754 28.1913C14.3608 28.6857 16.937 28.432 19.2781 27.4622C21.6193 26.4925 23.6204 24.8503 25.0282 22.7433C25.4288 22.1437 25.7763 21.5141 26.0684 20.8618L26.1063 20.7773C26.4577 19.9931 26.7879 19.2563 26.908 18.5679C27.0493 17.7573 26.907 17.0191 26.4126 16.256C25.8796 15.4332 25.1498 15.0312 24.2574 14.849C23.4651 14.6873 22.475 14.6874 21.3402 14.6875L19.375 14.6875C18.17 14.6875 17.3605 14.6855 16.7567 14.6044C16.1799 14.5268 15.933 14.3928 15.7702 14.2299C15.6073 14.067 15.4732 13.8201 15.3957 13.2433C15.3145 12.6395 15.3125 11.83 15.3125 10.625L15.3125 8.6598C15.3126 7.52503 15.3127 6.53494 15.151 5.74258C14.9688 4.8502 14.5668 4.12047 13.7441 3.58746ZM9.90455 5.64283C10.8036 5.24023 11.3247 5.01409 11.7542 4.93919C12.0862 4.8813 12.347 4.91648 12.7246 5.16108C13.0425 5.36708 13.2109 5.61297 13.3139 6.11759C13.433 6.70131 13.4375 7.49807 13.4375 8.75002L13.4375 10.69C13.4375 11.8131 13.4374 12.7497 13.5374 13.4931C13.6429 14.2779 13.875 14.9864 14.4443 15.5557C15.0137 16.125 15.7222 16.3571 16.5069 16.4626C17.2504 16.5626 18.1869 16.5626 19.31 16.5625L21.25 16.5625C22.502 16.5625 23.2987 16.567 23.8824 16.6862C24.3871 16.7892 24.6329 16.9575 24.839 17.2754C25.0836 17.653 25.1187 17.9138 25.0608 18.2458C24.9859 18.6754 24.7598 19.1965 24.3572 20.0955C24.1078 20.6523 23.8112 21.1897 23.4692 21.7016C22.2674 23.5002 20.5592 24.9021 18.5606 25.73C16.562 26.5578 14.3629 26.7744 12.2412 26.3524C10.1195 25.9303 8.17066 24.8886 6.64103 23.359C5.11139 21.8294 4.06969 19.8805 3.64767 17.7588C3.22564 15.6372 3.44224 13.438 4.27007 11.4394C5.09791 9.44085 6.49979 7.73265 8.29846 6.53082C8.8103 6.18882 9.34772 5.8922 9.90455 5.64283Z" fill="white"/>
</svg>
