<svg width="30" height="30" viewBox="0 0 30 30" fill="none" xmlns="http://www.w3.org/2000/svg">
<path d="M27.3619 6.56778C25.9072 6.56778 24.7238 7.7512 24.7238 9.20585V12.5658C24.4448 12.4673 24.1481 12.416 23.8435 12.416C23.1388 12.416 22.4763 12.6905 21.9781 13.1888L15 20.1667L8.02201 13.1888C7.52373 12.6905 6.86121 12.416 6.15656 12.416C5.85199 12.416 5.55521 12.4673 5.27625 12.5658V9.20585C5.27625 7.7512 4.09277 6.56778 2.63812 6.56778C1.18348 6.56778 0 7.7512 0 9.20585V18.3506L6.7166 25.9461V30H23.2834V25.9461L30 18.3507V9.20585C30 7.7512 28.8165 6.56778 27.3619 6.56778ZM14.1211 28.2422H8.47441V25.2805L1.75781 17.6849V9.20585C1.75781 8.72046 2.15273 8.32559 2.63812 8.32559C3.12352 8.32559 3.51844 8.72046 3.51844 9.20585V15.0529V15.0541C3.51844 15.7587 3.79283 16.4213 4.29117 16.9195L7.83896 20.4674L9.08191 19.2244L5.53412 15.6766C5.36783 15.5103 5.27625 15.2892 5.27625 15.0541C5.27625 14.819 5.36783 14.5979 5.53412 14.4316C5.70035 14.2654 5.92143 14.1738 6.15656 14.1738C6.3917 14.1738 6.61277 14.2654 6.77906 14.4316L14.1211 21.7737V28.2422ZM28.2422 17.6849L21.5256 25.2805V28.2422H15.8789V21.7737L23.2211 14.4316C23.3873 14.2654 23.6083 14.1738 23.8434 14.1738C24.0786 14.1738 24.2996 14.2654 24.4659 14.4317C24.631 14.5967 24.7225 14.8158 24.7237 15.049V15.0528V15.054C24.7237 15.2892 24.6322 15.5102 24.4659 15.6765L20.9181 19.2244L22.161 20.4673L25.7089 16.9195C26.2072 16.4212 26.4816 15.7587 26.4816 15.054C26.4816 15.051 26.4816 15.0481 26.4816 15.0452V9.20579C26.4816 8.7204 26.8765 8.32553 27.3619 8.32553C27.8473 8.32553 28.2422 8.72046 28.2422 9.20585V17.6849Z" fill="white"/>
<path d="M10.9771 9.43031L9.676 10.7314L10.9189 11.9744L12.2201 10.6733C12.7804 11.0617 13.4252 11.3355 14.1211 11.4623V13.3008H15.8789V11.4623C16.5748 11.3355 17.2196 11.0617 17.7799 10.6733L19.0811 11.9744L20.324 10.7314L19.0229 9.43031C19.4113 8.86998 19.6852 8.22516 19.812 7.5293H21.6504V5.77148H19.812C19.6852 5.07562 19.4113 4.4308 19.0229 3.87047L20.324 2.56934L19.0811 1.32639L17.7799 2.62752C17.2196 2.2391 16.5748 1.96523 15.8789 1.83844V0H14.1211V1.83844C13.4252 1.96523 12.7804 2.2391 12.2201 2.62752L10.9189 1.32639L9.676 2.56934L10.9771 3.87047C10.5887 4.4308 10.3148 5.07562 10.188 5.77148H8.34961V7.5293H10.188C10.3148 8.22516 10.5887 8.86998 10.9771 9.43031ZM15 3.51562C16.7285 3.51562 18.1348 4.92188 18.1348 6.65039C18.1348 8.37891 16.7285 9.78516 15 9.78516C13.2715 9.78516 11.8652 8.37891 11.8652 6.65039C11.8652 4.92188 13.2715 3.51562 15 3.51562Z" fill="white"/>
</svg>
