<svg width="28" height="28" viewBox="0 0 28 28" fill="none" xmlns="http://www.w3.org/2000/svg">
<path fill-rule="evenodd" clip-rule="evenodd" d="M14.0617 0.562502H13.9383C13.1072 0.562458 12.3911 0.562419 11.8177 0.639513C11.2031 0.722137 10.6141 0.90846 10.1363 1.38627C9.65845 1.86408 9.47213 2.45316 9.38951 3.0677C9.31241 3.64113 9.31245 4.35721 9.3125 5.18829L9.3125 8.22254C9.01927 8.1189 8.70372 8.06251 8.375 8.06251H4.625C3.0717 8.06251 1.8125 9.32171 1.8125 10.875V25.5625H1.5C0.982233 25.5625 0.5625 25.9822 0.5625 26.5C0.5625 27.0178 0.982233 27.4375 1.5 27.4375H26.5C27.0178 27.4375 27.4375 27.0178 27.4375 26.5C27.4375 25.9822 27.0178 25.5625 26.5 25.5625H26.1875V17.125C26.1875 15.5717 24.9283 14.3125 23.375 14.3125H19.625C19.2963 14.3125 18.9807 14.3689 18.6875 14.4725L18.6875 5.1883C18.6875 4.35721 18.6876 3.64114 18.6105 3.0677C18.5279 2.45316 18.3415 1.86408 17.8637 1.38627C17.3859 0.90846 16.7969 0.722137 16.1823 0.639513C15.6089 0.562419 14.8928 0.562458 14.0617 0.562502ZM24.3125 25.5625V17.125C24.3125 16.6072 23.8928 16.1875 23.375 16.1875H19.625C19.1072 16.1875 18.6875 16.6072 18.6875 17.125V25.5625H24.3125ZM16.8125 25.5625V5.25001C16.8125 4.33962 16.8105 3.75114 16.7522 3.31754C16.6975 2.91091 16.6093 2.78346 16.5379 2.71209C16.4665 2.64073 16.3391 2.55246 15.9325 2.49779C15.4989 2.4395 14.9104 2.43751 14 2.43751C13.0896 2.43751 12.5011 2.4395 12.0675 2.49779C11.6609 2.55246 11.5335 2.64073 11.4621 2.71209C11.3907 2.78346 11.3025 2.91091 11.2478 3.31754C11.1895 3.75114 11.1875 4.33962 11.1875 5.25001V25.5625H16.8125ZM9.3125 25.5625V10.875C9.3125 10.3572 8.89277 9.93751 8.375 9.93751H4.625C4.10723 9.93751 3.6875 10.3572 3.6875 10.875V25.5625H9.3125Z" fill="white"/>
</svg>
