<svg width="28" height="28" viewBox="0 0 28 28" fill="none" xmlns="http://www.w3.org/2000/svg">
<path fill-rule="evenodd" clip-rule="evenodd" d="M14.0002 2.62561C13.8515 2.84623 13.6683 3.17146 13.3956 3.66066L13.2318 3.95459C13.2196 3.97641 13.207 3.99922 13.1941 4.02284C13.0583 4.26946 12.874 4.60448 12.5695 4.83562C12.2594 5.07101 11.8855 5.15332 11.6181 5.21217C11.5927 5.21776 11.5683 5.22314 11.545 5.22841L11.2268 5.3004C10.6454 5.43196 10.283 5.51618 10.0395 5.6013C10.19 5.8275 10.4428 6.12628 10.8527 6.60566L11.0696 6.85931C11.0856 6.87796 11.1022 6.89722 11.1194 6.91709C11.3041 7.13088 11.5498 7.4153 11.6633 7.78047C11.7757 8.14185 11.7376 8.51574 11.7086 8.80153C11.7059 8.82822 11.7032 8.85413 11.7008 8.8792L11.668 9.21762C11.6094 9.82218 11.5733 10.2133 11.5743 10.4899C11.8146 10.4047 12.1437 10.2553 12.6459 10.024L12.9438 9.88685C12.9657 9.87676 12.9887 9.86602 13.0126 9.85483C13.2599 9.7391 13.6107 9.57492 14.0002 9.57492C14.3896 9.57492 14.7404 9.7391 14.9877 9.85483C15.0116 9.86602 15.0346 9.87676 15.0565 9.88685L15.3544 10.024C15.8566 10.2553 16.1857 10.4047 16.426 10.4899C16.427 10.2133 16.3909 9.82218 16.3323 9.21762L16.2995 8.8792C16.2971 8.85413 16.2945 8.82822 16.2918 8.80153C16.2627 8.51574 16.2246 8.14185 16.337 7.78047C16.4506 7.4153 16.6963 7.13088 16.881 6.91709C16.8981 6.89722 16.9148 6.87796 16.9307 6.85931L17.1476 6.60566C17.5576 6.12628 17.8103 5.8275 17.9608 5.6013C17.7174 5.51618 17.355 5.43196 16.7735 5.3004L16.4553 5.22841C16.432 5.22314 16.4076 5.21776 16.3822 5.21217C16.1149 5.15332 15.7409 5.07101 15.4308 4.83562C15.1264 4.60448 14.942 4.26945 14.8063 4.02283C14.7933 3.99922 14.7807 3.97641 14.7686 3.95459L14.6047 3.66066C14.332 3.17146 14.1488 2.84623 14.0002 2.62561ZM16.6913 10.5627C16.6927 10.5628 16.6935 10.5628 16.6935 10.5629L16.6913 10.5627ZM11.3068 10.5629C11.3068 10.5628 11.3076 10.5628 11.309 10.5627L11.3068 10.5629ZM12.6041 1.35605C12.8737 1.00402 13.3139 0.5625 14.0002 0.5625C14.6865 0.5625 15.1266 1.00401 15.3962 1.35605C15.6558 1.69504 15.9216 2.17189 16.2106 2.69049C16.2212 2.70951 16.2318 2.72859 16.2424 2.74772L16.4063 3.04165C16.4523 3.12417 16.4879 3.18796 16.5195 3.24264C16.5407 3.2794 16.5574 3.30716 16.5708 3.32858C16.5918 3.33439 16.6184 3.34128 16.6525 3.34959C16.7113 3.36389 16.7796 3.37938 16.8691 3.39964L17.1873 3.47163C17.209 3.47654 17.2306 3.48143 17.2522 3.48631C17.8108 3.61261 18.3323 3.73049 18.726 3.88565C19.1526 4.05378 19.6681 4.35679 19.8667 4.99548C20.0621 5.62395 19.8215 6.16651 19.5784 6.55262C19.3501 6.91537 18.9976 7.32748 18.6146 7.77516L18.3557 8.07792C18.2948 8.14916 18.2478 8.20409 18.2079 8.25224C18.1752 8.29172 18.1526 8.32024 18.1365 8.34176C18.1386 8.41138 18.1475 8.5094 18.1658 8.69835L18.2048 9.10042C18.2629 9.69948 18.316 10.2462 18.2968 10.6769C18.2768 11.1243 18.1713 11.7231 17.6394 12.1268C17.0923 12.5422 16.481 12.4612 16.0474 12.3369C15.6416 12.2207 15.1541 11.9961 14.6313 11.7553C14.611 11.7459 14.5906 11.7365 14.5702 11.7272L14.2723 11.59C14.1885 11.5514 14.1244 11.5219 14.0687 11.4974C14.0413 11.4853 14.0188 11.4757 14.0002 11.468C13.9815 11.4757 13.959 11.4853 13.9316 11.4974C13.8759 11.5219 13.8118 11.5514 13.728 11.59L13.4301 11.7272C13.4097 11.7365 13.3894 11.7459 13.3691 11.7553C12.8463 11.9961 12.3587 12.2207 11.9529 12.3369C11.5193 12.4612 10.908 12.5422 10.3609 12.1268C9.82905 11.7231 9.7235 11.1243 9.70357 10.6769C9.68438 10.2463 9.73743 9.6995 9.79556 9.10047C9.79761 9.0793 9.79967 9.05807 9.80173 9.03678L9.83453 8.69835C9.85284 8.5094 9.86177 8.41138 9.86388 8.34176C9.8477 8.32024 9.8251 8.29172 9.79239 8.25224C9.7525 8.2041 9.70555 8.14916 9.64463 8.07792L9.42771 7.82427C9.41367 7.80784 9.39966 7.79147 9.3857 7.77514C9.00276 7.32747 8.65024 6.91537 8.42189 6.55262C8.17883 6.16652 7.93823 5.62395 8.13366 4.99548C8.33228 4.35679 8.84773 4.05378 9.27435 3.88565C9.66808 3.73049 10.1895 3.61261 10.7481 3.48631C10.7697 3.48143 10.7913 3.47654 10.813 3.47163L11.1312 3.39964C11.2207 3.37938 11.2891 3.36389 11.3478 3.34959C11.3819 3.34128 11.4085 3.33439 11.4296 3.32859C11.443 3.30716 11.4596 3.2794 11.4809 3.24264C11.5124 3.18796 11.548 3.12417 11.594 3.04165L11.7579 2.74772C11.7685 2.72859 11.7792 2.70951 11.7898 2.69049C12.0788 2.17189 12.3445 1.69504 12.6041 1.35605ZM4.00017 9.25202C4.06538 9.37242 4.2042 9.61818 4.43208 9.79117C4.67696 9.97707 4.9709 10.039 5.09305 10.0647C5.10526 10.0673 5.11575 10.0695 5.12431 10.0714L5.15005 10.0772L5.10919 10.125C5.10291 10.1323 5.09534 10.141 5.0867 10.1508C5.00098 10.2485 4.80939 10.4668 4.72099 10.751C4.6338 11.0314 4.66522 11.3185 4.67958 11.4497C4.68104 11.4631 4.68233 11.4749 4.68329 11.4848L4.68464 11.4987C4.56676 11.4423 4.29951 11.3187 4.00017 11.3187C3.70082 11.3187 3.43357 11.4423 3.31569 11.4987L3.31704 11.4848C3.31801 11.4749 3.31929 11.4631 3.32076 11.4497C3.33511 11.3185 3.36653 11.0314 3.27935 10.751C3.19095 10.4668 2.99935 10.2485 2.91363 10.1508C2.90499 10.141 2.89742 10.1323 2.89115 10.125L2.85029 10.0772L2.87602 10.0714C2.88458 10.0695 2.89508 10.0673 2.90729 10.0647C3.02943 10.039 3.32337 9.97707 3.56826 9.79117C3.79613 9.61818 3.93496 9.37242 4.00017 9.25202ZM2.66914 9.15701L2.49178 8.37313L2.66914 9.15701ZM3.25767 12.2904C3.25793 12.2923 3.25802 12.2933 3.258 12.2933L3.25767 12.2904ZM4.74233 12.2933C4.74231 12.2933 4.7424 12.2923 4.74267 12.2904L4.74233 12.2933ZM2.92997 7.39303C3.09081 7.18301 3.43222 6.8125 4.00017 6.8125C4.56811 6.8125 4.90953 7.18301 5.07036 7.39303C5.22171 7.59067 5.37002 7.85702 5.50648 8.10208C5.51461 8.11667 5.5227 8.1312 5.53074 8.14562L5.59156 8.25472L5.69717 8.27862C5.71326 8.28226 5.72948 8.28592 5.74582 8.28961C6.00944 8.3491 6.30323 8.41541 6.53494 8.50672C6.79868 8.61066 7.21899 8.83747 7.38103 9.35855C7.53989 9.8694 7.3334 10.2919 7.186 10.526C7.05286 10.7375 6.85569 10.9679 6.67462 11.1794C6.6639 11.1919 6.65323 11.2044 6.64264 11.2168L6.55144 11.3234L6.56595 11.4732C6.56752 11.4894 6.5691 11.5057 6.5707 11.5221C6.59827 11.8054 6.62788 12.1096 6.61675 12.3593C6.60491 12.625 6.53932 13.1057 6.10323 13.4368C5.65185 13.7794 5.16039 13.6952 4.89468 13.6191C4.65587 13.5507 4.38144 13.4241 4.13488 13.3104C4.11952 13.3034 4.10428 13.2963 4.08915 13.2894L4.00017 13.2484L3.91117 13.2894C3.89605 13.2963 3.88081 13.3034 3.86546 13.3104C3.61889 13.4241 3.34446 13.5507 3.10566 13.6191C2.83994 13.6952 2.34848 13.7794 1.8971 13.4368C1.46102 13.1057 1.39542 12.625 1.38358 12.3593C1.37246 12.1096 1.40206 11.8054 1.42963 11.5221C1.43123 11.5057 1.43281 11.4894 1.43439 11.4732L1.4489 11.3234L1.35769 11.2168C1.3471 11.2044 1.33643 11.1919 1.32571 11.1794C1.14464 10.9679 0.947475 10.7375 0.814337 10.526C0.666935 10.2919 0.460447 9.8694 0.619307 9.35855C0.781347 8.83747 1.20165 8.61066 1.46539 8.50672C1.6971 8.41541 1.99089 8.3491 2.25451 8.28961C2.27085 8.28592 2.28708 8.28226 2.30316 8.27862L2.40877 8.25472L2.46959 8.14562C2.47763 8.1312 2.48572 8.11668 2.49384 8.10209C2.6303 7.85702 2.77862 7.59067 2.92997 7.39303ZM24.0002 9.25202C24.0654 9.37242 24.2042 9.61818 24.4321 9.79117C24.677 9.97706 24.9709 10.039 25.093 10.0647C25.1053 10.0673 25.1157 10.0695 25.1243 10.0714L25.15 10.0772L25.1092 10.125C25.1029 10.1323 25.0953 10.141 25.0867 10.1508C25.001 10.2485 24.8094 10.4668 24.721 10.751C24.6338 11.0314 24.6652 11.3185 24.6796 11.4497C24.681 11.4631 24.6823 11.4748 24.6833 11.4848L24.6846 11.4987C24.5668 11.4423 24.2995 11.3187 24.0002 11.3187C23.7008 11.3187 23.4336 11.4423 23.3157 11.4987L23.317 11.4848C23.318 11.4749 23.3193 11.4631 23.3208 11.4497C23.3351 11.3185 23.3665 11.0314 23.2793 10.751C23.1909 10.4668 22.9993 10.2485 22.9136 10.1508C22.905 10.141 22.8974 10.1323 22.8911 10.125L22.8503 10.0772L22.876 10.0714C22.8846 10.0695 22.8951 10.0673 22.9073 10.0647C23.0294 10.039 23.3234 9.97707 23.5683 9.79117C23.7961 9.61818 23.935 9.37242 24.0002 9.25202ZM23.2577 12.2904C23.258 12.2924 23.258 12.2934 23.258 12.2933L23.2577 12.2904ZM22.93 7.39303C23.0908 7.18301 23.4322 6.8125 24.0002 6.8125C24.5681 6.8125 24.9095 7.18301 25.0704 7.39303C25.2217 7.59066 25.37 7.85701 25.5065 8.10207C25.5146 8.11667 25.5227 8.13119 25.5307 8.14562L25.5916 8.25472L25.6972 8.27862C25.7133 8.28226 25.7295 8.28592 25.7458 8.28961C26.0094 8.3491 26.3032 8.41541 26.5349 8.50672C26.7987 8.61066 27.219 8.83747 27.381 9.35855C27.5399 9.8694 27.3334 10.2919 27.186 10.526C27.0529 10.7375 26.8557 10.9679 26.6746 11.1794C26.6639 11.1919 26.6532 11.2044 26.6426 11.2168L26.5514 11.3234L26.5659 11.4732C26.5675 11.4894 26.5691 11.5057 26.5707 11.5221C26.5983 11.8054 26.6279 12.1096 26.6167 12.3593C26.6049 12.625 26.5393 13.1057 26.1032 13.4368C25.6518 13.7794 25.1604 13.6952 24.8947 13.6191C24.6559 13.5507 24.3815 13.4241 24.1349 13.3104C24.1195 13.3034 24.1043 13.2963 24.0892 13.2894L24.0002 13.2484L23.9112 13.2894C23.8961 13.2963 23.8808 13.3033 23.8655 13.3104C23.6189 13.4241 23.3445 13.5507 23.1057 13.6191C22.8399 13.6952 22.3485 13.7794 21.8971 13.4368C21.461 13.1057 21.3954 12.625 21.3836 12.3593C21.3725 12.1096 21.4021 11.8054 21.4296 11.5221C21.4312 11.5057 21.4328 11.4894 21.4344 11.4732L21.4489 11.3234L21.3577 11.2168C21.3471 11.2044 21.3364 11.1919 21.3257 11.1794C21.1446 10.9679 20.9475 10.7375 20.8143 10.526C20.6669 10.2919 20.4604 9.8694 20.6193 9.35855C20.7813 8.83747 21.2016 8.61066 21.4654 8.50672C21.6971 8.41541 21.9909 8.3491 22.2545 8.28961C22.2709 8.28592 22.2871 8.28226 22.3032 8.27862L22.4088 8.25472L22.4696 8.14562C22.4776 8.1312 22.4857 8.11668 22.4938 8.10208C22.6303 7.85702 22.7786 7.59067 22.93 7.39303ZM24.7423 12.2933C24.7423 12.2932 24.7424 12.2922 24.7427 12.2904L24.7423 12.2933ZM9.85505 17.0602C12.1873 16.6084 14.684 16.7098 16.7042 17.9147C16.988 18.084 17.254 18.2948 17.4861 18.5555C17.9559 19.0833 18.1985 19.7391 18.21 20.3967C18.4491 20.2425 18.6886 20.0713 18.9319 19.8875L21.1909 18.181C22.3216 17.3269 23.9649 17.3267 25.0957 18.1806C26.1407 18.9696 26.5573 20.3856 25.8092 21.5847C25.2776 22.4368 24.4769 23.6156 23.6621 24.3702C22.8385 25.1331 21.6663 25.7745 20.7795 26.2025C19.7027 26.7222 18.5396 27.0096 17.4087 27.1926C15.0972 27.5668 12.6919 27.5096 10.4064 27.0387C9.2384 26.7981 8.0246 26.673 6.82508 26.673H4.00017C3.4824 26.673 3.06267 26.2532 3.06267 25.7355C3.06267 25.2177 3.4824 24.798 4.00017 24.798H6.82508C8.15272 24.798 9.49326 24.9362 10.7847 25.2023C12.8498 25.6277 15.0253 25.679 17.109 25.3417C18.1452 25.174 19.1128 24.925 19.9645 24.5139C20.8188 24.1015 21.7792 23.5585 22.388 22.9946C23.0037 22.4244 23.6927 21.4349 24.2184 20.5922C24.3771 20.3379 24.3551 19.9709 23.9659 19.677C23.5037 19.328 22.7831 19.3281 22.321 19.6771L20.062 21.3836C19.1603 22.0648 18.0503 22.7936 16.6736 23.0132C16.5346 23.0353 16.39 23.0556 16.2398 23.0735C16.1682 23.0864 16.0937 23.095 16.0167 23.0979C15.3138 23.1677 14.4998 23.1839 13.6017 23.0991C13.0863 23.0505 12.7079 22.5931 12.7565 22.0777C12.8052 21.5622 13.2625 21.1838 13.778 21.2324C14.5623 21.3065 15.266 21.2901 15.8629 21.2289C15.8751 21.2276 15.8871 21.2263 15.8991 21.2251C15.9241 21.2106 15.9622 21.1842 16.0121 21.1406C16.4115 20.792 16.4471 20.2083 16.0856 19.8023C15.994 19.6994 15.8812 19.607 15.7438 19.525C14.2673 18.6444 12.2955 18.4973 10.2117 18.901C8.13977 19.3024 6.0813 20.2271 4.54249 21.3184C4.12014 21.6179 3.53496 21.5183 3.23545 21.096C2.93593 20.6736 3.0355 20.0884 3.45785 19.7889C5.2058 18.5493 7.51091 17.5143 9.85505 17.0602Z" fill="white"/>
</svg>
