<svg width="34" height="34" viewBox="0 0 34 34" fill="none" xmlns="http://www.w3.org/2000/svg">
<g opacity="0.85" clip-path="url(#clip0_137_1403)">
<path d="M0 16.32C0 8.62665 0 4.78002 2.39001 2.39001C4.78002 0 8.62665 0 16.32 0H17.68C25.3733 0 29.22 0 31.61 2.39001C34 4.78002 34 8.62665 34 16.32V17.68C34 25.3733 34 29.22 31.61 31.61C29.22 34 25.3733 34 17.68 34H16.32C8.62665 34 4.78002 34 2.39001 31.61C0 29.22 0 25.3733 0 17.68V16.32Z" fill="#141414"/>
<path d="M18.0324 24.4802C10.1332 24.4802 5.62767 19.1198 5.43994 10.2002H9.39677C9.52674 16.747 12.4437 19.5201 14.7543 20.0918V10.2002H18.4802V15.8464C20.7619 15.6034 23.1588 13.0305 23.9675 10.2002H27.6933C27.0724 13.688 24.473 16.261 22.6246 17.3188C24.473 18.1764 27.4335 20.4206 28.5599 24.4802H24.4586C23.5777 21.7643 21.3828 19.663 18.4802 19.3771V24.4802H18.0324Z" fill="white"/>
</g>
<defs>
<clipPath id="clip0_137_1403">
<rect width="34" height="34" fill="white"/>
</clipPath>
</defs>
</svg>
